<svg width="32" height="29" viewBox="0 0 32 29" fill="none" xmlns="http://www.w3.org/2000/svg">
<path d="M0 1H6.2386L9.94568 17.2308M9.94568 17.2308H26.2289L30 4.71872L7.01261 4.39282M9.94568 17.2308C9.94568 17.2308 8.01358 17.2308 8.01358 19.1048C8.00802 19.3569 8.05359 19.6077 8.14755 19.8418C8.24151 20.0759 8.3819 20.2885 8.56028 20.4669C8.73865 20.6453 8.9513 20.7857 9.1854 20.8796C9.4195 20.9736 9.67021 21.0191 9.92241 21.0136H27.4161M13.8855 25.2386C13.8855 26.3732 12.9658 27.2929 11.8312 27.2929C10.6967 27.2929 9.77691 26.3732 9.77691 25.2386C9.77691 24.104 10.6967 23.1843 11.8312 23.1843C12.9658 23.1843 13.8855 24.104 13.8855 25.2386ZM26.1591 25.2386C26.1591 26.3732 25.2393 27.2929 24.1048 27.2929C22.9702 27.2929 22.0504 26.3732 22.0504 25.2386C22.0504 24.104 22.9702 23.1843 24.1048 23.1843C25.2393 23.1843 26.1591 24.104 26.1591 25.2386Z" stroke="black" stroke-width="2"/>
</svg>
