<svg width="29" height="25" viewBox="0 0 29 25" fill="none" xmlns="http://www.w3.org/2000/svg">
<path d="M2.12619 8.66163C1.35227 4.73536 4.2124 1.33429 8.67083 1.01305C12.5965 0.732602 14.5425 5.0566 14.9351 5.88265C14.9394 5.8965 14.9486 5.90868 14.9613 5.91736C14.9739 5.92603 14.9893 5.93073 15.0052 5.93073C15.021 5.93073 15.0364 5.92603 15.0491 5.91736C15.0617 5.90868 15.0709 5.8965 15.0753 5.88265C16.8979 1.33939 20.2179 1.14563 21.3844 1.03855C24.5249 0.732602 28.7366 2.94049 27.8898 8.08544C26.6784 15.2241 14.9239 23.2857 14.9239 23.2857C14.9239 23.2857 3.6572 16.3357 2.12619 8.66163Z" stroke="black" stroke-width="2"/>
</svg>
